function data()
return { 
		subMeshes = {
			{ 
				indices = { 
					normal = { 
						count = 66720,
						offset = 721664,
					},
					position = { 
						count = 66720,
						offset = 588224,
					},
					tangent = { 
						count = 66720,
						offset = 788384,
					},
					uv0 = { 
						count = 66720,
						offset = 654944,
					},
				},
			},
		},
		vertexAttr = { 
			normal = { 
				count = 200160,
				numComp = 3,
				offset = 121184,
			},
			position = { 
				count = 61152,
				numComp = 3,
				offset = 0,
			},
			tangent = { 
				count = 266880,
				numComp = 4,
				offset = 321344,
			},
			uv0 = { 
				count = 60032,
				numComp = 2,
				offset = 61152,
			},
		},
	}
end