function data()
return {
	subMeshes = {
		{
			indices = {
				normal = {
					count = 7464,
					offset = 80392,
				},
				position = {
					count = 7464,
					offset = 65464,
				},
				tangent = {
					count = 7464,
					offset = 87856,
				},
				uv0 = {
					count = 7464,
					offset = 72928,
				},
				uv1 = {
					count = 7464,
					offset = 95320,
				},
			},
		},
	},
	vertexAttr = {
		normal = {
			count = 22392,
			numComp = 3,
			offset = 9440,
		},
		position = {
			count = 5664,
			numComp = 3,
			offset = 0,
		},
		tangent = {
			count = 29856,
			numComp = 4,
			offset = 31832,
		},
		uv0 = {
			count = 3776,
			numComp = 2,
			offset = 5664,
		},
		uv1 = {
			count = 3776,
			numComp = 2,
			offset = 61688,
		},
	},
}
end
