function data()
return {
	subMeshes = {
		{
			indices = {
				normal = {
					count = 154020,
					offset = 1723756,
				},
				position = {
					count = 154020,
					offset = 1415716,
				},
				tangent = {
					count = 154020,
					offset = 1877776,
				},
				uv0 = {
					count = 154020,
					offset = 1569736,
				},
				uv1 = {
					count = 154020,
					offset = 2031796,
				},
			},
		},
	},
	vertexAttr = {
		normal = {
			count = 462060,
			numComp = 3,
			offset = 256024,
		},
		position = {
			count = 119784,
			numComp = 3,
			offset = 0,
		},
		tangent = {
			count = 616080,
			numComp = 4,
			offset = 718084,
		},
		uv0 = {
			count = 136240,
			numComp = 2,
			offset = 119784,
		},
		uv1 = {
			count = 81552,
			numComp = 2,
			offset = 1334164,
		},
	},
}
end
