function data()
return {
	subMeshes = {
		{
			indices = {
				normal = {
					count = 18804,
					offset = 207352,
				},
				position = {
					count = 18804,
					offset = 169744,
				},
				tangent = {
					count = 18804,
					offset = 226156,
				},
				uv0 = {
					count = 18804,
					offset = 188548,
				},
			},
		},
	},
	vertexAttr = {
		normal = {
			count = 56412,
			numComp = 3,
			offset = 38116,
		},
		position = {
			count = 21276,
			numComp = 3,
			offset = 0,
		},
		tangent = {
			count = 75216,
			numComp = 4,
			offset = 94528,
		},
		uv0 = {
			count = 16840,
			numComp = 2,
			offset = 21276,
		},
	},
}
end
