function data()
return {
	subMeshes = {
		{
			indices = {
				normal = {
					count = 15684,
					offset = 175128,
				},
				position = {
					count = 15684,
					offset = 143760,
				},
				tangent = {
					count = 15684,
					offset = 190812,
				},
				uv0 = {
					count = 15684,
					offset = 159444,
				},
			},
		},
	},
	vertexAttr = {
		normal = {
			count = 47052,
			numComp = 3,
			offset = 33972,
		},
		position = {
			count = 19884,
			numComp = 3,
			offset = 0,
		},
		tangent = {
			count = 62736,
			numComp = 4,
			offset = 81024,
		},
		uv0 = {
			count = 14088,
			numComp = 2,
			offset = 19884,
		},
	},
}
end
