function data()
return {
	subMeshes = {
		{
			indices = {
				normal = {
					count = 7776,
					offset = 80384,
				},
				position = {
					count = 7776,
					offset = 64832,
				},
				tangent = {
					count = 7776,
					offset = 88160,
				},
				uv0 = {
					count = 7776,
					offset = 72608,
				},
			},
		},
	},
	vertexAttr = {
		normal = {
			count = 23328,
			numComp = 3,
			offset = 10400,
		},
		position = {
			count = 4512,
			numComp = 3,
			offset = 0,
		},
		tangent = {
			count = 31104,
			numComp = 4,
			offset = 33728,
		},
		uv0 = {
			count = 5888,
			numComp = 2,
			offset = 4512,
		},
	},
}
end
