function data()
return {
	subMeshes = {
		{
			indices = {
				normal = {
					count = 61344,
					offset = 654680,
				},
				position = {
					count = 61344,
					offset = 531992,
				},
				tangent = {
					count = 61344,
					offset = 716024,
				},
				uv0 = {
					count = 61344,
					offset = 593336,
				},
			},
		},
	},
	vertexAttr = {
		normal = {
			count = 184032,
			numComp = 3,
			offset = 102584,
		},
		position = {
			count = 57936,
			numComp = 3,
			offset = 0,
		},
		tangent = {
			count = 245376,
			numComp = 4,
			offset = 286616,
		},
		uv0 = {
			count = 44648,
			numComp = 2,
			offset = 57936,
		},
	},
}
end
