function data()
return {
	subMeshes = {
		{
			indices = {
				normal = {
					count = 95820,
					offset = 1005460,
				},
				position = {
					count = 95820,
					offset = 813820,
				},
				tangent = {
					count = 95820,
					offset = 1101280,
				},
				uv0 = {
					count = 95820,
					offset = 909640,
				},
			},
		},
	},
	vertexAttr = {
		normal = {
			count = 287460,
			numComp = 3,
			offset = 143080,
		},
		position = {
			count = 81528,
			numComp = 3,
			offset = 0,
		},
		tangent = {
			count = 383280,
			numComp = 4,
			offset = 430540,
		},
		uv0 = {
			count = 61552,
			numComp = 2,
			offset = 81528,
		},
	},
}
end
