function data()
return {
	subMeshes = {
		{
			indices = {
				normal = {
					count = 49056,
					offset = 510928,
				},
				position = {
					count = 49056,
					offset = 412816,
				},
				tangent = {
					count = 49056,
					offset = 559984,
				},
				uv0 = {
					count = 49056,
					offset = 461872,
				},
			},
		},
	},
	vertexAttr = {
		normal = {
			count = 147168,
			numComp = 3,
			offset = 69424,
		},
		position = {
			count = 39072,
			numComp = 3,
			offset = 0,
		},
		tangent = {
			count = 196224,
			numComp = 4,
			offset = 216592,
		},
		uv0 = {
			count = 30352,
			numComp = 2,
			offset = 39072,
		},
	},
}
end
