function data()
return {
	subMeshes = {
		{
			indices = {
				normal = {
					count = 30048,
					offset = 321048,
				},
				position = {
					count = 30048,
					offset = 260952,
				},
				tangent = {
					count = 30048,
					offset = 351096,
				},
				uv0 = {
					count = 30048,
					offset = 291000,
				},
			},
		},
	},
	vertexAttr = {
		normal = {
			count = 90144,
			numComp = 3,
			offset = 50616,
		},
		position = {
			count = 28632,
			numComp = 3,
			offset = 0,
		},
		tangent = {
			count = 120192,
			numComp = 4,
			offset = 140760,
		},
		uv0 = {
			count = 21984,
			numComp = 2,
			offset = 28632,
		},
	},
}
end
