function data()
return {
	subMeshes = {
		{
			indices = {
				normal = {
					count = 388968,
					offset = 4205656,
				},
				position = {
					count = 388968,
					offset = 3427720,
				},
				tangent = {
					count = 388968,
					offset = 4594624,
				},
				uv0 = {
					count = 388968,
					offset = 3816688,
				},
			},
		},
	},
	vertexAttr = {
		normal = {
			count = 1166904,
			numComp = 3,
			offset = 704944,
		},
		position = {
			count = 381768,
			numComp = 3,
			offset = 0,
		},
		tangent = {
			count = 1555872,
			numComp = 4,
			offset = 1871848,
		},
		uv0 = {
			count = 323176,
			numComp = 2,
			offset = 381768,
		},
	},
}
end
