function data()
return {
	subMeshes = {
		{
			indices = {
				normal = {
					count = 753792,
					offset = 8141628,
				},
				position = {
					count = 753792,
					offset = 6634044,
				},
				tangent = {
					count = 753792,
					offset = 8895420,
				},
				uv0 = {
					count = 753792,
					offset = 7387836,
				},
			},
		},
	},
	vertexAttr = {
		normal = {
			count = 2261376,
			numComp = 3,
			offset = 1357500,
		},
		position = {
			count = 706932,
			numComp = 3,
			offset = 0,
		},
		tangent = {
			count = 3015168,
			numComp = 4,
			offset = 3618876,
		},
		uv0 = {
			count = 650568,
			numComp = 2,
			offset = 706932,
		},
	},
}
end
