function data()
return {
	subMeshes = {
		{
			indices = {
				normal = {
					count = 127368,
					offset = 1345836,
				},
				position = {
					count = 127368,
					offset = 1091100,
				},
				tangent = {
					count = 127368,
					offset = 1473204,
				},
				uv0 = {
					count = 127368,
					offset = 1218468,
				},
			},
		},
	},
	vertexAttr = {
		normal = {
			count = 382104,
			numComp = 3,
			offset = 199524,
		},
		position = {
			count = 110196,
			numComp = 3,
			offset = 0,
		},
		tangent = {
			count = 509472,
			numComp = 4,
			offset = 581628,
		},
		uv0 = {
			count = 89328,
			numComp = 2,
			offset = 110196,
		},
	},
}
end
