function data()
return {
	subMeshes = {
		{
			indices = {
				normal = {
					count = 343968,
					offset = 3684872,
				},
				position = {
					count = 343968,
					offset = 2996936,
				},
				tangent = {
					count = 343968,
					offset = 4028840,
				},
				uv0 = {
					count = 343968,
					offset = 3340904,
				},
			},
		},
	},
	vertexAttr = {
		normal = {
			count = 1031904,
			numComp = 3,
			offset = 589160,
		},
		position = {
			count = 317688,
			numComp = 3,
			offset = 0,
		},
		tangent = {
			count = 1375872,
			numComp = 4,
			offset = 1621064,
		},
		uv0 = {
			count = 271472,
			numComp = 2,
			offset = 317688,
		},
	},
}
end
