function data()
return {
	subMeshes = {
		{
			indices = {
				normal = {
					count = 753204,
					offset = 8116240,
				},
				position = {
					count = 753204,
					offset = 6609832,
				},
				tangent = {
					count = 753204,
					offset = 8869444,
				},
				uv0 = {
					count = 753204,
					offset = 7363036,
				},
			},
		},
	},
	vertexAttr = {
		normal = {
			count = 2259612,
			numComp = 3,
			offset = 1337404,
		},
		position = {
			count = 686100,
			numComp = 3,
			offset = 0,
		},
		tangent = {
			count = 3012816,
			numComp = 4,
			offset = 3597016,
		},
		uv0 = {
			count = 651304,
			numComp = 2,
			offset = 686100,
		},
	},
}
end
