function data()
return {
	subMeshes = {
		{
			indices = {
				normal = {
					count = 829092,
					offset = 8935116,
				},
				position = {
					count = 829092,
					offset = 7276932,
				},
				tangent = {
					count = 829092,
					offset = 9764208,
				},
				uv0 = {
					count = 829092,
					offset = 8106024,
				},
			},
		},
	},
	vertexAttr = {
		normal = {
			count = 2487276,
			numComp = 3,
			offset = 1473288,
		},
		position = {
			count = 771240,
			numComp = 3,
			offset = 0,
		},
		tangent = {
			count = 3316368,
			numComp = 4,
			offset = 3960564,
		},
		uv0 = {
			count = 702048,
			numComp = 2,
			offset = 771240,
		},
	},
}
end
