function data()
return {
	subMeshes = {
		{
			indices = {
				normal = {
					count = 148644,
					offset = 1624328,
				},
				position = {
					count = 148644,
					offset = 1327040,
				},
				tangent = {
					count = 148644,
					offset = 1772972,
				},
				uv0 = {
					count = 148644,
					offset = 1475684,
				},
			},
		},
	},
	vertexAttr = {
		normal = {
			count = 445932,
			numComp = 3,
			offset = 286532,
		},
		position = {
			count = 159900,
			numComp = 3,
			offset = 0,
		},
		tangent = {
			count = 594576,
			numComp = 4,
			offset = 732464,
		},
		uv0 = {
			count = 126632,
			numComp = 2,
			offset = 159900,
		},
	},
}
end
