function data()
return {
	subMeshes = {
		{
			indices = {
				normal = {
					count = 304896,
					offset = 3448660,
				},
				position = {
					count = 304896,
					offset = 2838868,
				},
				tangent = {
					count = 304896,
					offset = 3753556,
				},
				uv0 = {
					count = 304896,
					offset = 3143764,
				},
				uv1 = {
					count = 304896,
					offset = 4058452,
				},
			},
		},
	},
	vertexAttr = {
		normal = {
			count = 914688,
			numComp = 3,
			offset = 518092,
		},
		position = {
			count = 276588,
			numComp = 3,
			offset = 0,
		},
		tangent = {
			count = 1219584,
			numComp = 4,
			offset = 1432780,
		},
		uv0 = {
			count = 241504,
			numComp = 2,
			offset = 276588,
		},
		uv1 = {
			count = 186504,
			numComp = 2,
			offset = 2652364,
		},
	},
}
end
