function data()
return {
	subMeshes = {
		{
			indices = {
				normal = {
					count = 10296,
					offset = 115824,
				},
				position = {
					count = 10296,
					offset = 95232,
				},
				tangent = {
					count = 10296,
					offset = 126120,
				},
				uv0 = {
					count = 10296,
					offset = 105528,
				},
			},
		},
	},
	vertexAttr = {
		normal = {
			count = 30888,
			numComp = 3,
			offset = 23160,
		},
		position = {
			count = 13416,
			numComp = 3,
			offset = 0,
		},
		tangent = {
			count = 41184,
			numComp = 4,
			offset = 54048,
		},
		uv0 = {
			count = 9744,
			numComp = 2,
			offset = 13416,
		},
	},
}
end
