function data()
return {
	subMeshes = {
		{
			indices = {
				normal = {
					count = 15288,
					offset = 165376,
				},
				position = {
					count = 15288,
					offset = 134800,
				},
				tangent = {
					count = 15288,
					offset = 180664,
				},
				uv0 = {
					count = 15288,
					offset = 150088,
				},
			},
		},
	},
	vertexAttr = {
		normal = {
			count = 45864,
			numComp = 3,
			offset = 27784,
		},
		position = {
			count = 16152,
			numComp = 3,
			offset = 0,
		},
		tangent = {
			count = 61152,
			numComp = 4,
			offset = 73648,
		},
		uv0 = {
			count = 11632,
			numComp = 2,
			offset = 16152,
		},
	},
}
end
