function data()
return {
	subMeshes = {
		{
			indices = {
				normal = {
					count = 10752,
					offset = 70044,
				},
				position = {
					count = 10752,
					offset = 48540,
				},
				tangent = {
					count = 10752,
					offset = 80796,
				},
				uv0 = {
					count = 10752,
					offset = 59292,
				},
			},
		},
	},
	vertexAttr = {
		normal = {
			count = 4740,
			numComp = 3,
			offset = 23800,
		},
		position = {
			count = 13800,
			numComp = 3,
			offset = 0,
		},
		tangent = {
			count = 20000,
			numComp = 4,
			offset = 28540,
		},
		uv0 = {
			count = 10000,
			numComp = 2,
			offset = 13800,
		},
	},
}
end
