function data()
return {
	subMeshes = {
		{
			indices = {
				normal = {
					count = 8412,
					offset = 88688,
				},
				position = {
					count = 8412,
					offset = 71864,
				},
				tangent = {
					count = 8412,
					offset = 97100,
				},
				uv0 = {
					count = 8412,
					offset = 80276,
				},
			},
		},
	},
	vertexAttr = {
		normal = {
			count = 25236,
			numComp = 3,
			offset = 12980,
		},
		position = {
			count = 6156,
			numComp = 3,
			offset = 0,
		},
		tangent = {
			count = 33648,
			numComp = 4,
			offset = 38216,
		},
		uv0 = {
			count = 6824,
			numComp = 2,
			offset = 6156,
		},
	},
}
end
