function data()
return {
	subMeshes = {
		{
			indices = {
				normal = {
					count = 8412,
					offset = 91872,
				},
				position = {
					count = 8412,
					offset = 75048,
				},
				tangent = {
					count = 8412,
					offset = 100284,
				},
				uv0 = {
					count = 8412,
					offset = 83460,
				},
			},
		},
	},
	vertexAttr = {
		normal = {
			count = 25236,
			numComp = 3,
			offset = 16164,
		},
		position = {
			count = 6156,
			numComp = 3,
			offset = 0,
		},
		tangent = {
			count = 33648,
			numComp = 4,
			offset = 41400,
		},
		uv0 = {
			count = 10008,
			numComp = 2,
			offset = 6156,
		},
	},
}
end
