function data()
return {
	subMeshes = {
		{
			indices = {
				normal = {
					count = 6696,
					offset = 73184,
				},
				position = {
					count = 6696,
					offset = 59792,
				},
				tangent = {
					count = 6696,
					offset = 79880,
				},
				uv0 = {
					count = 6696,
					offset = 66488,
				},
			},
		},
	},
	vertexAttr = {
		normal = {
			count = 20088,
			numComp = 3,
			offset = 12920,
		},
		position = {
			count = 7416,
			numComp = 3,
			offset = 0,
		},
		tangent = {
			count = 26784,
			numComp = 4,
			offset = 33008,
		},
		uv0 = {
			count = 5504,
			numComp = 2,
			offset = 7416,
		},
	},
}
end
