function data()
return {
	subMeshes = {
		{
			indices = {
				normal = {
					count = 5712,
					offset = 64816,
				},
				position = {
					count = 5712,
					offset = 53392,
				},
				tangent = {
					count = 5712,
					offset = 70528,
				},
				uv0 = {
					count = 5712,
					offset = 59104,
				},
			},
		},
	},
	vertexAttr = {
		normal = {
			count = 17136,
			numComp = 3,
			offset = 13408,
		},
		position = {
			count = 6768,
			numComp = 3,
			offset = 0,
		},
		tangent = {
			count = 22848,
			numComp = 4,
			offset = 30544,
		},
		uv0 = {
			count = 6640,
			numComp = 2,
			offset = 6768,
		},
	},
}
end
