function data()
return {
	subMeshes = {
		{
			indices = {
				normal = {
					count = 5712,
					offset = 63328,
				},
				position = {
					count = 5712,
					offset = 51904,
				},
				tangent = {
					count = 5712,
					offset = 69040,
				},
				uv0 = {
					count = 5712,
					offset = 57616,
				},
			},
		},
	},
	vertexAttr = {
		normal = {
			count = 17136,
			numComp = 3,
			offset = 11920,
		},
		position = {
			count = 6768,
			numComp = 3,
			offset = 0,
		},
		tangent = {
			count = 22848,
			numComp = 4,
			offset = 29056,
		},
		uv0 = {
			count = 5152,
			numComp = 2,
			offset = 6768,
		},
	},
}
end
