function data()
return {
	subMeshes = {
		{
			indices = {
				normal = {
					count = 5472,
					offset = 60736,
				},
				position = {
					count = 5472,
					offset = 49792,
				},
				tangent = {
					count = 5472,
					offset = 66208,
				},
				uv0 = {
					count = 5472,
					offset = 55264,
				},
			},
		},
	},
	vertexAttr = {
		normal = {
			count = 16416,
			numComp = 3,
			offset = 11488,
		},
		position = {
			count = 6528,
			numComp = 3,
			offset = 0,
		},
		tangent = {
			count = 21888,
			numComp = 4,
			offset = 27904,
		},
		uv0 = {
			count = 4960,
			numComp = 2,
			offset = 6528,
		},
	},
}
end
