function data()
return {
	subMeshes = {
		{
			indices = {
				normal = {
					count = 8928,
					offset = 96704,
				},
				position = {
					count = 8928,
					offset = 78848,
				},
				tangent = {
					count = 8928,
					offset = 105632,
				},
				uv0 = {
					count = 8928,
					offset = 87776,
				},
			},
		},
	},
	vertexAttr = {
		normal = {
			count = 26784,
			numComp = 3,
			offset = 16352,
		},
		position = {
			count = 9504,
			numComp = 3,
			offset = 0,
		},
		tangent = {
			count = 35712,
			numComp = 4,
			offset = 43136,
		},
		uv0 = {
			count = 6848,
			numComp = 2,
			offset = 9504,
		},
	},
}
end
