function data()
return {
	subMeshes = {
		{
			indices = {
				normal = {
					count = 11292,
					offset = 121380,
				},
				position = {
					count = 11292,
					offset = 98796,
				},
				tangent = {
					count = 11292,
					offset = 132672,
				},
				uv0 = {
					count = 11292,
					offset = 110088,
				},
			},
		},
	},
	vertexAttr = {
		normal = {
			count = 33876,
			numComp = 3,
			offset = 19752,
		},
		position = {
			count = 11544,
			numComp = 3,
			offset = 0,
		},
		tangent = {
			count = 45168,
			numComp = 4,
			offset = 53628,
		},
		uv0 = {
			count = 8208,
			numComp = 2,
			offset = 11544,
		},
	},
}
end
