function data()
return { 
		subMeshes = {
			{ 
				indices = { 
					normal = { 
						count = 6156,
						offset = 69060,
					},
					position = { 
						count = 6156,
						offset = 56748,
					},
					tangent = { 
						count = 6156,
						offset = 75216,
					},
					uv0 = { 
						count = 6156,
						offset = 62904,
					},
				},
			},
		},
		vertexAttr = { 
			normal = { 
				count = 18468,
				numComp = 3,
				offset = 13656,
			},
			position = { 
				count = 8088,
				numComp = 3,
				offset = 0,
			},
			tangent = { 
				count = 24624,
				numComp = 4,
				offset = 32124,
			},
			uv0 = { 
				count = 5568,
				numComp = 2,
				offset = 8088,
			},
		},
	}
end