function data()
return { 
		subMeshes = {
			{ 
				indices = { 
					normal = { 
						count = 6132,
						offset = 68796,
					},
					position = { 
						count = 6132,
						offset = 56532,
					},
					tangent = { 
						count = 6132,
						offset = 74928,
					},
					uv0 = { 
						count = 6132,
						offset = 62664,
					},
				},
			},
		},
		vertexAttr = { 
			normal = { 
				count = 18396,
				numComp = 3,
				offset = 13608,
			},
			position = { 
				count = 8064,
				numComp = 3,
				offset = 0,
			},
			tangent = { 
				count = 24528,
				numComp = 4,
				offset = 32004,
			},
			uv0 = { 
				count = 5544,
				numComp = 2,
				offset = 8064,
			},
		},
	}
end