function data()
return { 
		subMeshes = {
			{ 
				indices = { 
					normal = { 
						count = 6708,
						offset = 74804,
					},
					position = { 
						count = 6708,
						offset = 61388,
					},
					tangent = { 
						count = 6708,
						offset = 81512,
					},
					uv0 = { 
						count = 6708,
						offset = 68096,
					},
				},
			},
		},
		vertexAttr = { 
			normal = { 
				count = 20124,
				numComp = 3,
				offset = 14432,
			},
			position = { 
				count = 8544,
				numComp = 3,
				offset = 0,
			},
			tangent = { 
				count = 26832,
				numComp = 4,
				offset = 34556,
			},
			uv0 = { 
				count = 5888,
				numComp = 2,
				offset = 8544,
			},
		},
	}
end