function data()
return { 
		subMeshes = {
			{ 
				indices = { 
					normal = { 
						count = 3072,
						offset = 19148,
					},
					position = { 
						count = 3072,
						offset = 13004,
					},
					tangent = { 
						count = 3072,
						offset = 22220,
					},
					uv0 = { 
						count = 3072,
						offset = 16076,
					},
					uv1 = { 
						count = 3072,
						offset = 25292,
					},
				},
			},
		},
		vertexAttr = { 
			normal = { 
				count = 996,
				numComp = 3,
				offset = 5400,
			},
			position = { 
				count = 3144,
				numComp = 3,
				offset = 0,
			},
			tangent = { 
				count = 4512,
				numComp = 4,
				offset = 6396,
			},
			uv0 = { 
				count = 2256,
				numComp = 2,
				offset = 3144,
			},
			uv1 = { 
				count = 2096,
				numComp = 2,
				offset = 10908,
			},
		},
	}
end