function data()
return {
	subMeshes = {
		{
			indices = {
				normal = {
					count = 530592,
					offset = 5755952,
				},
				position = {
					count = 530592,
					offset = 4694768,
				},
				tangent = {
					count = 530592,
					offset = 6286544,
				},
				uv0 = {
					count = 530592,
					offset = 5225360,
				},
			},
		},
	},
	vertexAttr = {
		normal = {
			count = 1591776,
			numComp = 3,
			offset = 980624,
		},
		position = {
			count = 517992,
			numComp = 3,
			offset = 0,
		},
		tangent = {
			count = 2122368,
			numComp = 4,
			offset = 2572400,
		},
		uv0 = {
			count = 462632,
			numComp = 2,
			offset = 517992,
		},
	},
}
end
