function data()
return {
	subMeshes = {
		{
			indices = {
				normal = {
					count = 829788,
					offset = 8942420,
				},
				position = {
					count = 829788,
					offset = 7282844,
				},
				tangent = {
					count = 829788,
					offset = 9772208,
				},
				uv0 = {
					count = 829788,
					offset = 8112632,
				},
			},
		},
	},
	vertexAttr = {
		normal = {
			count = 2489364,
			numComp = 3,
			offset = 1474328,
		},
		position = {
			count = 771720,
			numComp = 3,
			offset = 0,
		},
		tangent = {
			count = 3319152,
			numComp = 4,
			offset = 3963692,
		},
		uv0 = {
			count = 702608,
			numComp = 2,
			offset = 771720,
		},
	},
}
end
