function data()
return { 
		subMeshes = {
			{ 
				indices = { 
					normal = { 
						count = 10752,
						offset = 70320,
					},
					position = { 
						count = 10752,
						offset = 48816,
					},
					tangent = { 
						count = 10752,
						offset = 81072,
					},
					uv0 = { 
						count = 10752,
						offset = 59568,
					},
				},
			},
		},
		vertexAttr = { 
			normal = { 
				count = 5016,
				numComp = 3,
				offset = 23800,
			},
			position = { 
				count = 13800,
				numComp = 3,
				offset = 0,
			},
			tangent = { 
				count = 20000,
				numComp = 4,
				offset = 28816,
			},
			uv0 = { 
				count = 10000,
				numComp = 2,
				offset = 13800,
			},
		},
	}
end