function data()
return {
	subMeshes = {
		{
			indices = {
				normal = {
					count = 20304,
					offset = 221488,
				},
				position = {
					count = 20304,
					offset = 180880,
				},
				tangent = {
					count = 20304,
					offset = 241792,
				},
				uv0 = {
					count = 20304,
					offset = 201184,
				},
			},
		},
	},
	vertexAttr = {
		normal = {
			count = 60912,
			numComp = 3,
			offset = 38752,
		},
		position = {
			count = 21264,
			numComp = 3,
			offset = 0,
		},
		tangent = {
			count = 81216,
			numComp = 4,
			offset = 99664,
		},
		uv0 = {
			count = 17488,
			numComp = 2,
			offset = 21264,
		},
	},
}
end
