function data()
return { 
		subMeshes = {
			{ 
				indices = { 
					normal = { 
						count = 145068,
						offset = 1576728,
					},
					position = { 
						count = 145068,
						offset = 1286592,
					},
					tangent = { 
						count = 145068,
						offset = 1721796,
					},
					uv0 = { 
						count = 145068,
						offset = 1431660,
					},
				},
			},
		},
		vertexAttr = { 
			normal = { 
				count = 435204,
				numComp = 3,
				offset = 271116,
			},
			position = { 
				count = 142860,
				numComp = 3,
				offset = 0,
			},
			tangent = { 
				count = 580272,
				numComp = 4,
				offset = 706320,
			},
			uv0 = { 
				count = 128256,
				numComp = 2,
				offset = 142860,
			},
		},
	}
end