function data()
return {
	subMeshes = {
		{
			indices = {
				normal = {
					count = 347412,
					offset = 3721052,
				},
				position = {
					count = 347412,
					offset = 3026228,
				},
				tangent = {
					count = 347412,
					offset = 4068464,
				},
				uv0 = {
					count = 347412,
					offset = 3373640,
				},
			},
		},
	},
	vertexAttr = {
		normal = {
			count = 1042236,
			numComp = 3,
			offset = 594344,
		},
		position = {
			count = 320616,
			numComp = 3,
			offset = 0,
		},
		tangent = {
			count = 1389648,
			numComp = 4,
			offset = 1636580,
		},
		uv0 = {
			count = 273728,
			numComp = 2,
			offset = 320616,
		},
	},
}
end
