function data()
return { 
		subMeshes = {
			{ 
				indices = { 
					normal = { 
						count = 182364,
						offset = 1963604,
					},
					position = { 
						count = 182364,
						offset = 1598876,
					},
					tangent = { 
						count = 182364,
						offset = 2145968,
					},
					uv0 = { 
						count = 182364,
						offset = 1781240,
					},
				},
			},
		},
		vertexAttr = { 
			normal = { 
				count = 547092,
				numComp = 3,
				offset = 322328,
			},
			position = { 
				count = 171840,
				numComp = 3,
				offset = 0,
			},
			tangent = { 
				count = 729456,
				numComp = 4,
				offset = 869420,
			},
			uv0 = { 
				count = 150488,
				numComp = 2,
				offset = 171840,
			},
		},
	}
end