function data()
return { 
		subMeshes = {
			{ 
				indices = { 
					normal = { 
						count = 163476,
						offset = 1756564,
					},
					position = { 
						count = 163476,
						offset = 1429612,
					},
					tangent = { 
						count = 163476,
						offset = 1920040,
					},
					uv0 = { 
						count = 163476,
						offset = 1593088,
					},
				},
			},
		},
		vertexAttr = { 
			normal = { 
				count = 490428,
				numComp = 3,
				offset = 285280,
			},
			position = { 
				count = 149784,
				numComp = 3,
				offset = 0,
			},
			tangent = { 
				count = 653904,
				numComp = 4,
				offset = 775708,
			},
			uv0 = { 
				count = 135496,
				numComp = 2,
				offset = 149784,
			},
		},
	}
end