function data()
return {
	subMeshes = {
		{
			indices = {
				normal = {
					count = 94224,
					offset = 1051168,
				},
				position = {
					count = 94224,
					offset = 862720,
				},
				tangent = {
					count = 94224,
					offset = 1145392,
				},
				uv0 = {
					count = 94224,
					offset = 956944,
				},
			},
		},
	},
	vertexAttr = {
		normal = {
			count = 282672,
			numComp = 3,
			offset = 203152,
		},
		position = {
			count = 110448,
			numComp = 3,
			offset = 0,
		},
		tangent = {
			count = 376896,
			numComp = 4,
			offset = 485824,
		},
		uv0 = {
			count = 92704,
			numComp = 2,
			offset = 110448,
		},
	},
}
end
