function data()
return {
	subMeshes = {
		{
			indices = {
				normal = {
					count = 187872,
					offset = 2009440,
				},
				position = {
					count = 187872,
					offset = 1633696,
				},
				tangent = {
					count = 187872,
					offset = 2197312,
				},
				uv0 = {
					count = 187872,
					offset = 1821568,
				},
			},
		},
	},
	vertexAttr = {
		normal = {
			count = 563616,
			numComp = 3,
			offset = 318592,
		},
		position = {
			count = 170592,
			numComp = 3,
			offset = 0,
		},
		tangent = {
			count = 751488,
			numComp = 4,
			offset = 882208,
		},
		uv0 = {
			count = 148000,
			numComp = 2,
			offset = 170592,
		},
	},
}
end
