function data()
return {
	subMeshes = {
		{
			indices = {
				normal = {
					count = 9936,
					offset = 69600,
				},
				position = {
					count = 9936,
					offset = 49728,
				},
				tangent = {
					count = 9936,
					offset = 79536,
				},
				uv0 = {
					count = 9936,
					offset = 59664,
				},
			},
		},
	},
	vertexAttr = {
		normal = {
			count = 8652,
			numComp = 3,
			offset = 21908,
		},
		position = {
			count = 12516,
			numComp = 3,
			offset = 0,
		},
		tangent = {
			count = 19168,
			numComp = 4,
			offset = 30560,
		},
		uv0 = {
			count = 9392,
			numComp = 2,
			offset = 12516,
		},
	},
}
end
